<svg xmlns="http://www.w3.org/2000/svg" xmlns:xlink="http://www.w3.org/1999/xlink" width="58" height="20" viewBox="0 0 58 20">
    <defs>
        <linearGradient id="prefix__a" x1="0%" x2="54.283%" y1="13.52%" y2="29.511%">
            <stop offset="0%" stop-color="#FFF"/>
            <stop offset="100%" stop-color="#FFF" stop-opacity="0"/>
        </linearGradient>
        <linearGradient id="prefix__c" x1="50%" x2="50%" y1="0%" y2="100%">
            <stop offset="0%" stop-color="#D5BB98"/>
            <stop offset="40.016%" stop-color="#FFF"/>
            <stop offset="100%" stop-color="#CCAD8B"/>
        </linearGradient>
        <linearGradient id="prefix__e" x1="50%" x2="50%" y1=".412%" y2="107.765%">
            <stop offset="0%" stop-color="#FFDEBB"/>
            <stop offset="77.03%" stop-color="#B49372"/>
            <stop offset="100%" stop-color="#E3C09C"/>
        </linearGradient>
        <linearGradient id="prefix__d" x1="50%" x2="50%" y1="0%" y2="98.299%">
            <stop offset="0%" stop-color="#FFECD9" stop-opacity=".235"/>
            <stop offset="100%" stop-color="#FFEAD5" stop-opacity=".211"/>
        </linearGradient>
        <linearGradient id="prefix__g" x1="96.477%" x2=".998%" y1="0%" y2="0%">
            <stop offset="0%" stop-color="#FFF"/>
            <stop offset="100%" stop-color="#FFF" stop-opacity="0"/>
        </linearGradient>
        <filter id="prefix__h" width="119.9%" height="310%" x="-9.9%" y="-105%" filterUnits="objectBoundingBox">
            <feGaussianBlur in="SourceGraphic" stdDeviation="1.12"/>
        </filter>
        <path id="prefix__b" d="M50.668.787l4.451 3.98c.42.377.657.887.657 1.419v5.628c0 .532-.236 1.042-.657 1.418l-4.45 3.98c-.421.377-.991.588-1.586.588H6.917c-.595 0-1.165-.211-1.585-.587L.88 13.233c-.42-.377-.657-.887-.657-1.419V6.186c0-.532.236-1.042.657-1.418L5.33.788C5.753.41 6.323.2 6.918.2h42.166c.595 0 1.165.211 1.585.587z"/>
    </defs>
    <g fill="none" fill-rule="evenodd" transform="translate(1 1)">
        <ellipse cx="9.296" cy="8.3" fill="url(#prefix__a)" opacity=".4" rx="7.952" ry="7.1"/>
        <ellipse cx="46.032" cy="8.3" fill="url(#prefix__a)" opacity=".4" rx="7.952" ry="7.1" transform="matrix(-1 0 0 1 92.064 0)"/>
        <mask id="prefix__f" fill="#fff">
            <use xlink:href="#prefix__b"/>
        </mask>
        <path stroke="url(#prefix__c)" stroke-width=".5" d="M49.083-.05H6.917c-.658 0-1.287.235-1.752.651l-4.45 3.98c-.477.426-.741 1.004-.741 1.605v5.628c0 .601.264 1.18.74 1.605l4.45 3.98c.466.416 1.095.651 1.753.651h42.166c.658 0 1.287-.235 1.752-.651l4.45-3.98c.477-.426.741-1.004.741-1.605V6.186c0-.601-.264-1.18-.74-1.605l-4.45-3.98C50.37.185 49.74-.05 49.082-.05z"/>
        <path fill="url(#prefix__e)" stroke="url(#prefix__d)" stroke-width=".5" d="M49.083-.35H6.917c-.532 0-1.042.187-1.419.524l-4.45 3.98c-.366.326-.574.768-.574 1.231v6.03c0 .463.208.905.573 1.231l4.451 3.98c.377.337.887.524 1.42.524h42.165c.532 0 1.042-.187 1.419-.524l4.45-3.98c.366-.326.574-.768.574-1.231v-6.03c0-.463-.208-.905-.573-1.231L50.502.174c-.377-.337-.887-.524-1.42-.524z" mask="url(#prefix__f)"/>
        <g fill="url(#prefix__g)" mask="url(#prefix__f)" opacity=".8">
            <g>
                <path d="M0 0H18.816V1H0z" transform="translate(8.288 17)"/>
                <path d="M18.816 0H37.632V1H18.816z" transform="translate(8.288 17) matrix(-1 0 0 1 56.448 0)"/>
            </g>
        </g>
        <ellipse cx="29.232" cy=".2" fill="#FFF" fill-opacity=".502" filter="url(#prefix__h)" mask="url(#prefix__f)" rx="16.912" ry="1.6"/>
    </g>
</svg>
