<svg xmlns="http://www.w3.org/2000/svg" xmlns:xlink="http://www.w3.org/1999/xlink" width="140" height="52" viewBox="0 0 140 52">
    <defs>
        <linearGradient id="prefix__a" x1="0%" x2="54.283%" y1="4.963%" y2="24.705%">
            <stop offset="0%" stop-color="#FFF"/>
            <stop offset="100%" stop-color="#FFF" stop-opacity="0"/>
        </linearGradient>
        <linearGradient id="prefix__c" x1="50%" x2="50%" y1="0%" y2="100%">
            <stop offset="0%" stop-color="#D5BB98"/>
            <stop offset="40.016%" stop-color="#FFF"/>
            <stop offset="100%" stop-color="#CCAD8B"/>
        </linearGradient>
        <linearGradient id="prefix__e" x1="50%" x2="50%" y1=".412%" y2="107.765%">
            <stop offset="0%" stop-color="#FFDEBB"/>
            <stop offset="77.03%" stop-color="#B49372"/>
            <stop offset="100%" stop-color="#E3C09C"/>
        </linearGradient>
        <linearGradient id="prefix__d" x1="50%" x2="50%" y1="0%" y2="98.299%">
            <stop offset="0%" stop-color="#FFECD9" stop-opacity=".235"/>
            <stop offset="100%" stop-color="#FFEAD5" stop-opacity=".211"/>
        </linearGradient>
        <linearGradient id="prefix__g" x1="96.477%" x2=".998%" y1="0%" y2="0%">
            <stop offset="0%" stop-color="#FFF"/>
            <stop offset="100%" stop-color="#FFF" stop-opacity="0"/>
        </linearGradient>
        <filter id="prefix__h" width="119.9%" height="289%" x="-9.9%" y="-94.5%" filterUnits="objectBoundingBox">
            <feGaussianBlur in="SourceGraphic" stdDeviation="2.8"/>
        </filter>
        <path id="prefix__b" d="M126.671 2.187l11.127 11.056c1.051 1.045 1.642 2.462 1.642 3.939v15.636c0 1.477-.59 2.894-1.642 3.939l-11.127 11.056c-1.051 1.045-2.477 1.631-3.964 1.631H17.293c-1.487 0-2.913-.586-3.964-1.631L2.202 36.757C1.15 35.712.56 34.295.56 32.818V17.182c0-1.477.59-2.894 1.642-3.939L13.329 2.187C14.38 1.142 15.806.556 17.293.556h105.414c1.487 0 2.913.586 3.964 1.631z"/>
    </defs>
    <g fill="none" fill-rule="evenodd" transform="translate(0 1)">
        <ellipse cx="23.24" cy="23.056" fill="url(#prefix__a)" opacity=".4" rx="19.88" ry="19.722"/>
        <ellipse cx="115.08" cy="23.056" fill="url(#prefix__a)" opacity=".4" rx="19.88" ry="19.722" transform="matrix(-1 0 0 1 230.16 0)"/>
        <mask id="prefix__f" fill="#fff">
            <use xlink:href="#prefix__b"/>
        </mask>
        <path stroke="url(#prefix__c)" stroke-width=".56" d="M122.707.276H17.293c-1.561 0-3.058.616-4.161 1.712L2.005 13.045C.9 14.142.28 15.63.28 17.182v15.636c0 1.552.62 3.04 1.725 4.137l11.127 11.057c1.103 1.096 2.6 1.712 4.16 1.712h105.415c1.561 0 3.058-.616 4.161-1.712l11.127-11.057c1.105-1.097 1.725-2.585 1.725-4.137V17.182c0-1.552-.62-3.04-1.725-4.137L126.868 1.988c-1.103-1.096-2.6-1.712-4.16-1.712z"/>
        <path fill="url(#prefix__e)" stroke="url(#prefix__d)" stroke-width=".56" d="M122.707-1.387H17.293c-1.413 0-2.768.558-3.767 1.55L2.4 11.22c-.998.992-1.559 2.337-1.559 3.74v16.749c0 1.403.561 2.748 1.56 3.74l11.126 11.055c1 .993 2.354 1.55 3.767 1.55h105.414c1.413 0 2.768-.557 3.767-1.55L137.6 35.448c.998-.992 1.559-2.337 1.559-3.74v-16.75c0-1.402-.561-2.747-1.56-3.739L126.475.163c-1-.992-2.354-1.55-3.767-1.55z" mask="url(#prefix__f)"/>
        <g fill="url(#prefix__g)" mask="url(#prefix__f)" opacity=".8">
            <g>
                <path d="M0 0H47.04V1.111H0z" transform="translate(20.72 47.222)"/>
                <path d="M47.04 0H94.08V1.111H47.04z" transform="translate(20.72 47.222) matrix(-1 0 0 1 141.12 0)"/>
            </g>
        </g>
        <ellipse cx="73.08" cy=".556" fill="#FFF" fill-opacity=".502" filter="url(#prefix__h)" mask="url(#prefix__f)" rx="42.28" ry="4.444"/>
    </g>
</svg>
