<svg xmlns="http://www.w3.org/2000/svg" xmlns:xlink="http://www.w3.org/1999/xlink" width="156" height="198" viewBox="0 0 156 198">
    <defs>
        <filter id="prefix__b" width="175.1%" height="550%" x="-37.6%" y="-225%" filterUnits="objectBoundingBox">
            <feGaussianBlur in="SourceGraphic" stdDeviation="9"/>
        </filter>
        <filter id="prefix__e" width="111.1%" height="108.5%" x="-5.6%" y="-3.2%" filterUnits="objectBoundingBox">
            <feMorphology in="SourceAlpha" operator="dilate" radius="1" result="shadowSpreadOuter1"/>
            <feOffset dy="2" in="shadowSpreadOuter1" result="shadowOffsetOuter1"/>
            <feGaussianBlur in="shadowOffsetOuter1" result="shadowBlurOuter1" stdDeviation="2"/>
            <feComposite in="shadowBlurOuter1" in2="SourceAlpha" operator="out" result="shadowBlurOuter1"/>
            <feColorMatrix in="shadowBlurOuter1" values="0 0 0 0 0.476958786 0 0 0 0 0.360881093 0 0 0 0 0.238170388 0 0 0 1 0"/>
        </filter>
        <filter id="prefix__f" width="118.1%" height="113.8%" x="-9%" y="-5.9%" filterUnits="objectBoundingBox">
            <feGaussianBlur in="SourceAlpha" result="shadowBlurInner1" stdDeviation="7.5"/>
            <feOffset dy="1" in="shadowBlurInner1" result="shadowOffsetInner1"/>
            <feComposite in="shadowOffsetInner1" in2="SourceAlpha" k2="-1" k3="1" operator="arithmetic" result="shadowInnerInner1"/>
            <feColorMatrix in="shadowInnerInner1" values="0 0 0 0 1 0 0 0 0 1 0 0 0 0 1 0 0 0 1 0"/>
        </filter>
        <filter id="prefix__i" width="137.6%" height="400%" x="-18.8%" y="-150%" filterUnits="objectBoundingBox">
            <feGaussianBlur in="SourceGraphic" stdDeviation="6"/>
        </filter>
        <filter id="prefix__j" width="137.6%" height="400%" x="-18.8%" y="-150%" filterUnits="objectBoundingBox">
            <feGaussianBlur in="SourceGraphic" stdDeviation="6"/>
        </filter>
        <path id="prefix__a" d="M13.836 0L0 13.859 0 183.961 13.836 197.82 141.879 197.82 155.715 183.961 155.715 13.859 141.879 0z"/>
        <path id="prefix__d" d="M137.557 5l12.193 12.206v163.588L137.557 193H18.183L5.99 180.794V17.206L18.183 5h24.892l4.583 4h60.424l4.582-4h24.893z"/>
        <linearGradient id="prefix__g" x1="6.202%" x2="100%" y1="100%" y2="100%">
            <stop offset="0%" stop-color="#FFF"/>
            <stop offset="100%" stop-color="#FFF" stop-opacity="0"/>
            <stop offset="100%" stop-color="#FFF"/>
        </linearGradient>
    </defs>
    <g fill="none" fill-rule="evenodd">
        <mask id="prefix__c" fill="#fff">
            <use xlink:href="#prefix__a"/>
        </mask>
        <path stroke="#FFDBB4" d="M141.671.5H14.044L.5 14.066v169.688l13.544 13.566H141.67l13.544-13.566V14.066L141.671.5z"/>
        <ellipse cx="77.87" fill="#FFF" filter="url(#prefix__b)" mask="url(#prefix__c)" rx="35.94" ry="6"/>
        <mask id="prefix__h" fill="#fff">
            <use xlink:href="#prefix__d"/>
        </mask>
        <use fill="#000" filter="url(#prefix__e)" xlink:href="#prefix__d"/>
        <use fill="#F8FBFF" xlink:href="#prefix__d"/>
        <use fill="#000" filter="url(#prefix__f)" xlink:href="#prefix__d"/>
        <path stroke="#464E68" d="M43.263 4.5H17.976L5.49 16.999V181L17.976 193.5h119.788l12.486-12.499V17L137.764 4.5h-25.288l-4.581 4h-60.05l-4.582-4z"/>
        <path fill="url(#prefix__g)" d="M73.877 114H139.767V116H73.877z" mask="url(#prefix__h)" opacity=".4"/>
        <path fill="url(#prefix__g)" d="M7.987 114H73.877V116H7.987z" mask="url(#prefix__h)" opacity=".4" transform="matrix(-1 0 0 1 81.864 0)"/>
        <ellipse cx="81.864" cy="112" fill="#FFF" filter="url(#prefix__i)" mask="url(#prefix__h)" opacity=".33" rx="47.92" ry="6"/>
        <ellipse cx="81.864" cy="193" fill="#AFC3FF" filter="url(#prefix__j)" mask="url(#prefix__h)" opacity=".33" rx="47.92" ry="6"/>
    </g>
</svg>
