<svg xmlns="http://www.w3.org/2000/svg" width="20" height="20" viewBox="0 0 20 20">
    <defs>
        <linearGradient id="prefix__a" x1="78.451%" x2="78.451%" y1="100%" y2="4.007%">
            <stop offset="0%" stop-color="#B18F6B"/>
            <stop offset="29.365%" stop-color="#E9C299"/>
            <stop offset="59.19%" stop-color="#B18F6B"/>
            <stop offset="100%" stop-color="#E8C198"/>
        </linearGradient>
    </defs>
    <g fill="none" fill-rule="evenodd">
        <path d="M0 0H20V20H0z"/>
        <path fill="url(#prefix__a)" d="M10.086 19C11.131 19 12 18.09 12 17H8c0 1.09 1.042 2 2.086 2zm6.08-5.475V8.082c0-2.969-1.5-5.939-4.833-6.267v-.33C11.333.66 10.5 0 9.833 0c-.833 0-1.5.825-1.5 1.485v.495c-3 .823-4.5 3.298-4.5 6.267v5.276L2 15.338v.66L18 16v-.66l-1.833-1.815z"/>
    </g>
</svg>
