<svg xmlns="http://www.w3.org/2000/svg" width="108" height="43" viewBox="0 0 108 43">
    <path fill="#CAAB8B" fill-rule="evenodd" d="M22.443.435l5.397 5.424h7.633c.816 0 1.484.671 1.484 1.492v7.67l5.397 5.424c.578.58.578 1.53 0 2.11l-5.397 5.424v7.67c0 .82-.668 1.492-1.484 1.492H27.84l-5.397 5.424c-.577.58-1.521.58-2.099 0l-5.397-5.424H7.314c-.816 0-1.484-.671-1.484-1.492v-7.67L.433 22.554c-.577-.58-.577-1.529 0-2.109l5.397-5.424v-7.67c0-.82.668-1.492 1.484-1.492h7.633L20.344.435c.578-.58 1.522-.58 2.099 0zm46.523 24.458v2.957h.872V29h-.872v8.65h-1.634V29h-1.035v-1.15h1.035v-2.957h1.634zm20.298.055v1.862h3.324v1.15h-1.144c-.074 2.774.399 5.073 1.416 6.898v1.533c-1.126-1.277-1.871-2.482-2.234-3.613-.435-1.168-.653-2.774-.653-4.819h-.709v5.914h1.798v1.095h-1.798v2.628h-1.689v-2.628H85.67v-.986c-.327.694-.909 1.515-1.744 2.464v-1.588c1.017-1.825 1.49-4.124 1.417-6.899h-1.036v-1.15h3.27v-1.861h1.688zm16.485 5.42v5.421c.072 1.205-.49 1.77-1.69 1.697h-1.361v-1.04h.653c.472.036.69-.2.654-.712v-.383h-6.32v2.245h-1.743v-7.227h9.807zm-21.17-5.42c-.364 1.497-.745 2.555-1.144 3.176v9.472H81.8v-7.94c-.4.257-.872.458-1.416.603v-.985c1.307-.877 2.142-2.318 2.506-4.326h1.689zm-7.114 7.885v.602h1.58v1.04h-1.58v1.26c.036 1.204-.545 1.787-1.743 1.751h-1.253v-1.095h.654c.508.036.744-.219.708-.766v-1.15h-6.266v-1.04h6.266v-.602h1.634zm-12.942-7.228v1.205h-3.378v8.979h3.705v1.205H52.319v-1.205h3.704v-8.98h-3.377v-1.204h11.877zm7.93 9.253c.363.584.617 1.224.763 1.917H71.58c-.109-.62-.309-1.26-.6-1.917h1.472zM59.456 26.81h-1.744v8.98h1.744v-8.98zM14.188 18.95c0 1.35.005 2.692.005 4.039-.065 1.268 1.1 2.017 1.1 2.017.515.414 1.333.881 2.064 1.449 1.142.886 1.593 1.694 1.593 3.104v5.043h2.027v-5.495c.007-1.637-.011-3.226-.085-4.101-.06-.722-.373-1.14-.836-1.489-.88-.662-1.956-1.24-2.88-1.826-.787-.501-2.729-1.611-2.988-2.74zm14.695 0c-.258 1.13-2.2 2.24-2.988 2.74-.924.588-2 1.165-2.88 1.827-.463.35-.776.767-.836 1.489-.073.875-.091 2.464-.085 4.101v5.495h2.027v-5.043c0-1.41.451-2.218 1.593-3.104.732-.568 1.55-1.035 2.064-1.45l.036-.024c.196-.139 1.122-.857 1.065-1.992 0-1.347.004-2.69.004-4.039zm75.122 14.43h-6.32v.986h6.32v-.986zm-16.43-5.42h-.762c0 2.518-.364 4.49-1.09 5.913h1.852v-5.914zm-33.24.328c.109 1.898.436 3.65.98 5.256H53.9c-.473-1.314-.854-3.066-1.144-5.256h1.58zm10.024 0c-.217 1.971-.6 3.723-1.144 5.256h-1.362c.545-1.606.872-3.358.98-5.256h1.526zm10.764-3.395v.986h1.198v-.876h1.471v.876h1.09v.93h-3.76v.658h3.215v5.31h-1.471v-.82h-1.743v.766h-1.58v-.767h-1.798v.822h-1.471v-5.311h3.269v-.658h-3.705v-.93h3.705v-.986h1.58zm28.882 6.516h-6.32v.985h6.32v-.985zm-27.139-1.314h-1.743v.985h1.743v-.985zm-3.323 0h-1.798v.985h1.798v-.985zm28.283-5.147v.93h5.23v1.15h-6.701c-.545.475-1.272.95-2.18 1.424 1.562 0 2.652-.018 3.27-.055.762 0 1.47-.035 2.124-.109-.218-.292-.454-.566-.708-.821h1.526c.653.584 1.253 1.388 1.798 2.409h-1.744c-.073-.182-.164-.364-.272-.548-2.144.184-4.25.274-6.32.274h-1.907v-1.15c.871-.438 1.616-.912 2.234-1.423H94.58v-1.15h5.23v-.931h2.016zm-24.96 3.45h-1.743v.82h1.743v-.82zm-3.323 0h-1.798v.82h1.798v-.82zM65.27 6.258l-8.166 15.208c-.531.89-1.743.768-2.742.756-.952-.011-1.217.264-1.543.45l2.25-4.166 1.822-3.402c-.227-.165-.543-.294-.941-.351-1.057-.151-2.112-.17-2.742-1.296l-3.136-7.167c1.342 1.184 3.645-.134 4.387 1.562l2.837 6.485 3.502-6.523c.035-.06.08-.116.12-.164.22-.258.446-.43.802-.553 1.27-.442 2.486.145 3.55-.839zM21.472 9.773c-3.003 0-5.439 2.448-5.439 5.466 0 3.018 2.436 5.466 5.44 5.466 3.003 0 5.439-2.448 5.439-5.466 0-3.018-2.436-5.466-5.44-5.466zm-.004.4c2.79 0 5.051 2.273 5.051 5.077 0 2.803-2.261 5.076-5.051 5.076s-5.051-2.273-5.051-5.076c0-2.804 2.261-5.077 5.05-5.077zM82.58 0v8.05c1.124-.762 2.492-1.21 3.968-1.21 3.826 0 6.929 3.007 6.929 6.714 0 3.707-3.103 6.713-6.929 6.713-2.117 0-4.012-.92-5.282-2.371-.677-.772-1.665-1.77-1.167-2.88.18-.4.253-.802.256-1.181.008-1.14-.593-2.266-.593-2.266l1.613 1.888c.805.943 1.442 1.888 2.275 2.745.227.232.484.438.764.61v.002l.21.12c.57.305 1.227.48 1.924.48 2.2 0 3.984-1.729 3.984-3.86 0-2.132-1.784-3.86-3.984-3.86-1.863 0-3.396 1.112-3.781 2.609l-1.349-1.578-.455-.533-1.205-1.412V3.364c0-1.574.69-1.69 1.775-2.191C82.302.818 82.58 0 82.58 0zM20.715 18.86l-1.552.066-.222.447-.147-.059.211.134c.722.429 1.564.675 2.463.675.198 0 .394-.012.587-.036l.176-.458-1.516-.77zM71.26 6.883c3.056 0 5.637 1.975 6.458 4.678.241.792.295 1.528.295 2.322v5.89h-2.907v-5.321c0-.574.016-1.212-.107-1.791-.356-1.686-1.894-2.953-3.739-2.953-2.107 0-3.816 1.656-3.816 3.698s1.709 3.698 3.816 3.698c.167 0 .332-.01.493-.03l.034-.005.055-.007c.281-.042.553-.114.81-.212.746-.264 1.337-.67 1.697-.96v.014c-.126.2-.294.45-.415.723-.134.306-.186.668-.178.898.022.575.041.986-.345 1.485-.672.868-1.933.917-2.126.92h-.025c-3.717 0-6.732-2.922-6.732-6.524s3.015-6.523 6.732-6.523zm30.008 0c3.718 0 6.732 2.921 6.732 6.523s-3.014 6.523-6.732 6.523c-3.717 0-6.731-2.921-6.731-6.523s3.014-6.523 6.731-6.523zm-78.186 9.582l-2.062 1.044-.157 1.23 1.507.764 1.554-.955.28-1.309-1.122-.774zm-5.845-.587l-.512.391c.268 1.263 1.021 2.343 2.055 3.037l.252-.5-.645-1.574-1.15-1.354zm8.263-.014l-.017.125-.053-.007.01-.067-1.047 1.283-.3 1.398.613.226.04.019c.783-.723 1.329-1.7 1.508-2.801l-.754-.176zm-3.864-2.325l-1.783.345-.283 2.291h.002l1.405 1.158 2.026-1.025.243-1.711-1.61-1.058zm79.632-3.831c-2.107 0-3.816 1.656-3.816 3.698s1.709 3.698 3.816 3.698c2.108 0 3.817-1.656 3.817-3.698s-1.71-3.698-3.817-3.698zm-82.54 3.204l-1.447 1.077v1.67l1.097 1.291 1-.65.3-2.434-.95-.954zm6.417-.84l-.54.24.182 1.788.005-.001.672 1.635.007-.052.808.184c.025-.202.038-.407.038-.616 0-1.214-.442-2.324-1.172-3.178zm-1.9-.6l-1.604.386.03 1.495 1.75 1.149 1.195-.352-.194-1.903c-.255-.179-.835-.577-1.177-.775zm-3.747-.677c-1.127.504-2.027 1.428-2.505 2.574l.27.415 1.34-.998-.007-.009 1.17-1.248-.018.008-.25-.742zm1.97-.42c-.64 0-1.253.126-1.812.353l.252.737 1.714.216 1.372-.33-.06-.748c-.463-.147-.956-.227-1.466-.227z"/>
</svg>
